<?xml version="1.0" standalone="no"?>
<!DOCTYPE svg PUBLIC "-//W3C//DTD SVG 20010904//EN"
 "http://www.w3.org/TR/2001/REC-SVG-20010904/DTD/svg10.dtd">
<svg version="1.0" xmlns="http://www.w3.org/2000/svg"
 width="700.000000pt" height="700.000000pt" viewBox="0 0 700.000000 700.000000"
 preserveAspectRatio="xMidYMid meet">
<metadata>
Created by potrace 1.11, written by Peter Selinger 2001-2013
</metadata>
<g transform="translate(0.000000,700.000000) scale(0.100000,-0.100000)"
fill="#000000" stroke="none">
<path d="M4738 6665 c-2 -1 -56 -5 -121 -8 -64 -3 -120 -8 -125 -10 -4 -3 -32
-8 -62 -11 -146 -16 -379 -91 -565 -181 -265 -128 -481 -300 -681 -540 -47
-56 -153 -220 -197 -305 -93 -177 -167 -410 -192 -608 -13 -100 -14 -424 -2
-477 3 -11 12 -58 21 -105 9 -47 28 -123 43 -170 19 -63 27 -113 30 -192 l4
-107 42 -3 c40 -3 43 -6 77 -68 20 -36 58 -99 85 -140 28 -41 53 -79 57 -85 4
-7 -67 -10 -222 -9 -338 3 -324 -13 -325 361 0 144 -4 265 -8 269 -5 5 -203 9
-442 9 l-434 0 0 -210 c0 -334 1 -318 -24 -355 -12 -19 -37 -43 -56 -54 -32
-18 -53 -19 -375 -19 -216 1 -351 5 -368 11 -15 6 -35 23 -45 39 -16 24 -18
55 -19 299 -1 150 -4 276 -7 281 -3 5 -82 8 -175 7 -160 -2 -172 -3 -225 -29
-61 -28 -114 -84 -144 -151 -17 -37 -18 -141 -20 -1834 -3 -1881 -4 -1826 39
-1906 25 -45 88 -99 144 -120 47 -18 106 -19 1754 -19 l1705 0 57 28 c61 30
110 82 144 152 18 39 19 81 22 1294 1 690 4 1256 5 1257 1 1 45 -8 97 -22 202
-51 324 -67 530 -67 178 0 295 12 445 47 11 2 43 9 70 16 135 30 351 119 504
207 517 299 868 815 947 1393 12 89 13 425 1 475 -3 11 -8 40 -12 65 -12 78
-63 263 -99 358 -161 422 -502 795 -924 1010 -85 43 -258 117 -302 128 -8 2
-67 17 -130 34 -63 16 -140 32 -170 36 -30 3 -58 8 -62 10 -4 3 -58 7 -120 10
-62 3 -125 7 -140 8 -15 2 -29 2 -30 1z m247 -360 c301 -40 612 -183 846 -388
74 -65 114 -107 218 -232 24 -29 100 -151 132 -212 62 -117 131 -323 145 -428
2 -22 8 -67 13 -100 5 -33 7 -114 6 -180 -11 -463 -230 -882 -609 -1164 -249
-185 -493 -279 -826 -317 -48 -6 -267 -5 -310 1 -19 3 -55 7 -80 10 -93 11
-360 84 -382 104 -4 4 -8 150 -8 325 -1 297 -2 322 -22 374 -28 75 -96 143
-169 167 -75 25 -437 29 -443 5 -3 -8 -5 -95 -4 -193 0 -98 -2 -180 -5 -183
-8 -8 -109 151 -156 243 -68 136 -122 297 -136 409 -4 27 -10 67 -14 89 -8 44
-6 293 2 340 3 17 9 50 12 75 3 25 15 79 27 120 150 548 582 960 1157 1105 36
9 85 19 110 22 25 3 66 9 91 13 53 8 333 5 405 -5z m-1440 -3036 c55 -42 128
-92 163 -113 34 -21 62 -43 63 -49 0 -7 1 -598 2 -1315 l2 -1302 -1650 2
-1649 3 -1 1420 c-1 781 0 1422 1 1425 1 3 670 5 1486 5 l1483 -1 100 -75z"/>
<path d="M4460 5164 l1 -711 25 -52 c30 -60 96 -115 158 -133 42 -11 1178 -19
1196 -8 9 5 12 124 11 405 l-1 130 -412 0 -413 0 -3 538 c-2 419 -5 537 -15
538 -6 0 -132 1 -280 2 l-267 2 0 -711z"/>
<path d="M1369 2968 c-4 -9 -3 -298 1 -299 41 -7 266 -1 274 7 7 7 10 61 8
152 l-3 142 -140 0 c-76 0 -140 -1 -140 -2z"/>
<path d="M1969 2968 c-1 -4 -1 -271 0 -288 1 -13 24 -15 141 -15 77 0 140 2
141 5 0 3 2 71 2 153 l2 147 -142 0 c-79 0 -143 -1 -144 -2z"/>
<path d="M2570 2818 l0 -153 122 2 c68 1 132 2 144 2 20 1 20 6 20 151 l0 150
-143 0 -143 0 0 -152z"/>
<path d="M3170 2818 l0 -153 137 2 c76 1 141 2 145 2 4 1 7 69 6 151 l0 150
-144 0 -144 0 0 -152z"/>
<path d="M763 2180 l0 -150 144 0 143 0 0 150 0 150 -143 0 -144 0 0 -150z"/>
<path d="M1359 2313 c-1 -24 -1 -232 0 -260 1 -23 3 -23 144 -23 l142 0 0 150
0 150 -142 0 c-129 0 -143 -2 -144 -17z"/>
<path d="M1960 2180 l0 -150 144 0 144 0 0 150 -1 150 -144 0 -143 0 0 -150z"/>
<path d="M2563 2183 l2 -148 143 -3 142 -3 0 151 0 150 -144 0 -144 0 1 -147z"/>
<path d="M3164 2180 l0 -150 143 0 143 0 0 150 0 150 -143 0 -143 0 0 -150z"/>
<path d="M771 1690 c-5 -3 -8 -70 -7 -150 l1 -145 143 -1 142 -1 0 148 c0 82
-3 150 -7 150 -26 4 -266 3 -272 -1z"/>
<path d="M1363 1693 c-6 -2 -8 -120 -4 -274 l1 -25 142 0 142 1 1 148 c1 98
-2 147 -9 148 -28 3 -265 4 -273 2z"/>
<path d="M1960 1544 l0 -151 143 1 142 1 1 148 c1 81 -1 147 -5 148 -3 1 -68
2 -143 3 l-138 1 0 -151z"/>
<path d="M2565 1690 c-2 -3 -3 -71 -3 -151 l0 -145 144 -1 145 -1 -3 152 -3
151 -138 0 c-77 0 -140 -2 -142 -5z"/>
<path d="M3171 1690 c-6 -4 -8 -266 -2 -292 0 -3 64 -6 141 -5 l140 2 0 147
c0 111 -3 148 -12 149 -38 4 -261 3 -267 -1z"/>
<path d="M764 906 l1 -151 125 0 c69 0 133 1 143 3 15 4 17 20 17 152 l0 147
-143 0 -144 0 1 -151z"/>
<path d="M1352 906 l3 -151 133 0 c74 0 138 2 142 5 5 3 8 70 7 150 l-2 145
-143 1 -143 1 3 -151z"/>
<path d="M1956 1051 c-2 -3 -3 -71 -2 -151 l1 -144 143 -1 142 0 0 151 0 151
-140 0 c-78 0 -142 -3 -144 -6z"/>
<path d="M2563 1051 c-10 -7 -11 -271 -1 -286 5 -8 235 -13 276 -6 4 0 7 68 7
150 l0 149 -137 -1 c-75 0 -140 -3 -145 -6z"/>
<path d="M1083 4577 c-4 -6 -7 -434 -4 -584 l1 -43 143 0 142 0 -1 313 c-1
171 -2 314 -3 317 -2 9 -272 6 -278 -3z"/>
</g>
</svg>
